<?xml version="1.0" encoding="utf-8"?>
<!-- Uploaded to: SVG Repo, www.svgrepo.com, Generator: SVG Repo Mixer Tools -->
<svg fill="#000000" height="800px" width="800px" version="1.2" baseProfile="tiny" id="Layer_1" xmlns="http://www.w3.org/2000/svg" xmlns:xlink="http://www.w3.org/1999/xlink"
	  viewBox="79 -152 413.5 561" xml:space="preserve">
<path d="M230.4-103.3c0-25.5,20.7-46.2,46.2-46.2c25.5,0,46.2,20.7,46.2,46.2c0,25.5-20.7,46.2-46.2,46.2
	C251.1-57.1,230.4-77.8,230.4-103.3z M467.8,169.1h-20.1v157.2h20.1c14.4,0,21.7-11.3,21.7-21.6c0,0,0-113.3,0-114
	C489.4,180.5,481.3,169.1,467.8,169.1z M407.2,169h29.5v157.2H332v54.1c0,36.2-53.2,35.1-53.2,0V169.1h-8.8v211.1
	c0,35.1-52.8,36.2-52.8,0V13.5L92.5-113.4c-21.5-21.5,9.9-52.9,31.4-31.3L221.4-45l102.5-0.1c32.1,0,56.2,29.8,56.2,58.1v122.2
	c8.6,0,13.7,0,13.7,0c8.6,0,13.5,4.2,13.5,12.3V169z M341.4,27.4H332V169h9.4v-21.3v-0.2V27.4z M394.2,147.8h-40.3v21.3h40.3V147.8z
	"/>
</svg>